<svg xmlns="http://www.w3.org/2000/svg" width="600" height="860" viewBox="0 0 600 860"><defs><linearGradient id="sky" x2="0" y2="1"><stop stop-color="#92b6b3"/><stop offset=".45" stop-color="#d1d6bf"/><stop offset="1" stop-color="#738e84"/></linearGradient><linearGradient id="water" x2="0" y2="1"><stop stop-color="#4b898a"/><stop offset="1" stop-color="#153f4b"/></linearGradient><linearGradient id="fade" x2="0" y2="1"><stop stop-color="#143842" stop-opacity="0"/><stop offset="1" stop-color="#143842"/></linearGradient><filter id="cloud"><feGaussianBlur stdDeviation="13"/></filter></defs>
<path fill="url(#sky)" d="M0 0h600v860H0z"/><circle cx="424" cy="186" r="60" fill="#e9e0b8" opacity=".72"/><path d="M-60 180q130-45 285-1t365 2" stroke="#eef0d7" opacity=".35" stroke-width="27" fill="none" filter="url(#cloud)"/>
<path d="m-23 395 127-218 84 117 93-91 183 221 50-96 115 104v428H0z" fill="#6b9896"/><path d="m104 177-72 175 65-43 26 17 18-76 47 44zM281 203l-50 60 43-11 33 52 9-42z" fill="#d3dcca"/><path d="M0 391 151 321l111 123 114-146 122 130 102-77v509H0z" fill="#487c7c"/><path d="m376 298-37 56 25-9 19 23 9-7 40 36z" fill="#a4b9a8"/><path d="m0 471 97-47 47 53 156-66 94 54 65-15 141 81v329H0z" fill="#2b6267"/>
<path d="M0 561q170-29 278-7t322-1v307H0z" fill="url(#water)"/><g fill="none" stroke="#bfd0b7" opacity=".22"><path d="M205 573h91m81 8h55m-303 12h118m-43 30h208m-35 15h86M62 678h145m154-15h164m-281 30h98m-133 16h81m29 25h99M375 774h179M74 755h126"/></g>
<path d="m0 441 87 137 60 66 80 76L79 789 0 796z" fill="#204b51"/><path d="m600 483-51 68-58 18-35 63-31 13-71 83 113 34 133-12z" fill="#1c4a4f"/><path d="m0 723 121-39 58 27 32 45 98 52-87 52H0z" fill="#173a43"/><path d="m600 709-154 24-96 90-80 37h330z" fill="#12343f"/>
<path d="m468 552 6-72h21l6 72z" fill="#d5d8b9"/><path d="M471 480h27v-10h-27z" fill="#183c46"/><path d="m469 470 15-10 15 10z" fill="#cfad77"/><path d="M480 485h9v19h-9z" fill="#e9ce87"/><path d="M481 522h8v24h-8z" fill="#446663"/><path d="m484 492-179-15v18z" fill="#ebdcab" opacity=".1"/>
<path d="m169 710-4-31 8-17 8 5 5 31-6 2 4 18-6 1-7-22-1 15z" fill="#c08854"/><circle cx="177" cy="657" r="6" fill="#cbb294"/><path d="m173 705-2 29 6 1 4-32z" fill="#172f38"/><path d="m186 696 9 36 6-1-11-34z" fill="#172f38"/><path d="m177 669 16 10 12 6-1 4-15-4-14-9z" fill="#b18156"/><path d="M207 681v60" stroke="#536561" stroke-width="2"/>
<path fill="url(#fade)" d="M0 700h600v160H0z"/><g text-anchor="middle" font-family="Arial,sans-serif" fill="#e3e2c9"><text x="300" y="58" font-size="10" letter-spacing="5">ДОРОГА ДОМOЙ НАЧИНАЕТСЯ ВНУТРИ</text><text x="300" y="122" font-size="54" font-weight="700" letter-spacing="4">ТИХИЙ</text><text x="300" y="177" font-size="54" font-weight="700" letter-spacing="4">СЕВЕР</text><text x="300" y="814" font-size="8" letter-spacing="3.5" fill="#a0bbb1">ПУТЕШЕСТВИЕ, КОТОРОЕ СТОИТ ПРОЙТИ</text></g></svg>
