<svg xmlns="http://www.w3.org/2000/svg" width="600" height="860" viewBox="0 0 600 860"><defs><linearGradient id="sky" x2=".6" y2="1"><stop stop-color="#151f2c"/><stop offset=".56" stop-color="#353b42"/><stop offset="1" stop-color="#15212e"/></linearGradient><linearGradient id="beam" x2="0" y2="1"><stop stop-color="#e15c4f" stop-opacity="0"/><stop offset=".4" stop-color="#d56753" stop-opacity=".65"/><stop offset="1" stop-color="#a94943" stop-opacity="0"/></linearGradient><radialGradient id="red"><stop stop-color="#ef9b6d"/><stop offset=".15" stop-color="#dd705c"/><stop offset=".5" stop-color="#be514a" stop-opacity=".3"/><stop offset="1" stop-color="#943e40" stop-opacity="0"/></radialGradient><pattern id="scan" width="4" height="7" patternUnits="userSpaceOnUse"><path d="M0 1h4" stroke="#93a4a2" opacity=".045"/></pattern></defs><path fill="url(#sky)" d="M0 0h600v860H0z"/><path d="M67 149 527 25 474 546 178 617z" fill="url(#beam)"/><circle cx="329" cy="280" r="226" fill="url(#red)"/><g fill="none" stroke="#c97968" opacity=".24"><circle cx="328" cy="282" r="68"/><circle cx="328" cy="282" r="103"/><circle cx="328" cy="282" r="149"/><circle cx="328" cy="282" r="201"/><path d="M0 282h600M328 0v595" stroke-width=".5"/></g>
<path d="m323 279-54 380h121l-54-380z" fill="#19232c"/><g fill="none" stroke="#556067" stroke-width="2"><path d="m326 317-14 99 42-28-52 95 65-29-77 98 89-32-102 98 110-6M315 373h28M304 450h51M293 527h73M281 604h96"/><path d="M328 198v81" stroke="#252e35" stroke-width="4"/></g><circle cx="328" cy="272" r="7" fill="#efaf89"/><circle cx="328" cy="272" r="15" fill="none" stroke="#e98261" opacity=".7"/>
<path d="M0 667h29v-78h43v25h36v-77h43v144h39v-68h70v36h47v-35h40v-55h57v67h48v-106h63v91h37v-34h48v283H0z" fill="#16232e"/><g fill="#758178" opacity=".5"><path d="M38 618h8v13h-8zm91-63h8v16h-8zm87 76h9v15h-9zm206-86h10v17h-10zm47 65h9v13h-9zm70 13h9v17h-9z"/></g>
<path d="M0 727h600v133H0z" fill="#14222e"/><path d="M0 483h151l14-15 14 29 14-50 14 81 14-118 15 153 15-208 15 167 14-85 13 35h124l14-16 15 31 12-44 14 72 14-42h64" fill="none" stroke="#d58a6b" stroke-width="1.2" opacity=".55"/>
<path d="M0 0h600v860H0z" fill="url(#scan)"/><g text-anchor="middle" font-family="Arial,sans-serif" fill="#e8d0b2"><text x="300" y="64" font-size="10" letter-spacing="5">НЕ КАЖДЫЙ ЗВОНОК ИЗ НАСТОЯЩЕГО</text><text x="300" y="733" font-size="41" font-weight="700" letter-spacing="5">НУЛЕВОЙ</text><text x="300" y="786" font-size="48" font-weight="700" letter-spacing="4">СИГНАЛ</text><text x="300" y="824" font-size="8" letter-spacing="3.5" fill="#a39285">СЛУШАЙ ВНИМАТЕЛЬНО</text></g></svg>
